<svg width="32" height="32" viewBox="0 0 32 32" fill="none" xmlns="http://www.w3.org/2000/svg">
<path d="M31 16C31 13.0333 30.1203 10.1332 28.472 7.66645C26.8238 5.19971 24.4811 3.27713 21.7403 2.14181C18.9994 1.0065 15.9834 0.709449 13.0736 1.28823C10.1639 1.86701 7.49119 3.29562 5.3934 5.3934C3.29562 7.49119 1.86701 10.1639 1.28823 13.0736C0.709449 15.9834 1.0065 18.9994 2.14181 21.7403C3.27713 24.4811 5.19971 26.8238 7.66645 28.472C10.1332 30.1203 13.0333 31 16 31C19.9771 30.9962 23.7902 29.4146 26.6024 26.6024C29.4146 23.7902 30.9962 19.9771 31 16ZM17.1538 28.6346V19.4615H20.6154C20.9214 19.4615 21.2149 19.34 21.4313 19.1236C21.6477 18.9072 21.7692 18.6137 21.7692 18.3077C21.7692 18.0017 21.6477 17.7082 21.4313 17.4918C21.2149 17.2754 20.9214 17.1538 20.6154 17.1538H17.1538V13.6923C17.1538 13.0803 17.397 12.4933 17.8298 12.0605C18.2625 11.6278 18.8495 11.3846 19.4615 11.3846H21.7692C22.0753 11.3846 22.3687 11.2631 22.5851 11.0467C22.8015 10.8303 22.9231 10.5368 22.9231 10.2308C22.9231 9.92476 22.8015 9.63127 22.5851 9.41488C22.3687 9.19849 22.0753 9.07693 21.7692 9.07693H19.4615C18.2386 9.08073 17.0669 9.56822 16.2022 10.4329C15.3374 11.2977 14.85 12.4694 14.8462 13.6923V17.1538H11.3846C11.0786 17.1538 10.7851 17.2754 10.5687 17.4918C10.3523 17.7082 10.2308 18.0017 10.2308 18.3077C10.2308 18.6137 10.3523 18.9072 10.5687 19.1236C10.7851 19.34 11.0786 19.4615 11.3846 19.4615H14.8462V28.6346C11.5935 28.3377 8.58043 26.7982 6.43381 24.3365C4.28719 21.8747 3.17223 18.6802 3.32084 15.4173C3.46946 12.1545 4.87022 9.07455 7.23175 6.81814C9.59328 4.56173 12.7338 3.30256 16 3.30256C19.2662 3.30256 22.4067 4.56173 24.7683 6.81814C27.1298 9.07455 28.5305 12.1545 28.6792 15.4173C28.8278 18.6802 27.7128 21.8747 25.5662 24.3365C23.4196 26.7982 20.4065 28.3377 17.1538 28.6346Z" fill="#0D51BE" stroke="#0D51BE" stroke-width="0.9"/>
</svg>
