<svg width="31" height="30" viewBox="0 0 31 30" fill="none" xmlns="http://www.w3.org/2000/svg">
<path d="M25.1366 0C26.4627 0 27.7344 0.526784 28.6721 1.46447C29.6098 2.40215 30.1366 3.67392 30.1366 5V25C30.1366 26.3261 29.6098 27.5979 28.6721 28.5355C27.7344 29.4732 26.4627 30 25.1366 30H5.1366C3.81051 30 2.53874 29.4732 1.60106 28.5355C0.663381 27.5979 0.136597 26.3261 0.136597 25V5C0.136597 3.67392 0.663381 2.40215 1.60106 1.46447C2.53874 0.526784 3.81051 0 5.1366 0H25.1366ZM25.1366 3.33333H5.1366C4.69457 3.33333 4.27065 3.50893 3.95809 3.82149C3.64552 4.13405 3.46993 4.55797 3.46993 5V25C3.46993 25.442 3.64552 25.866 3.95809 26.1785C4.27065 26.4911 4.69457 26.6667 5.1366 26.6667H25.1366C25.5786 26.6667 26.0025 26.4911 26.3151 26.1785C26.6277 25.866 26.8033 25.442 26.8033 25V5C26.8033 4.55797 26.6277 4.13405 26.3151 3.82149C26.0025 3.50893 25.5786 3.33333 25.1366 3.33333ZM8.46993 11.6667C8.87815 11.6667 9.27216 11.8166 9.57722 12.0879C9.88228 12.3591 10.0772 12.7329 10.1249 13.1383L10.1366 13.3333V21.6667C10.1361 22.0915 9.97346 22.5001 9.68185 22.8089C9.39023 23.1178 8.99167 23.3037 8.56761 23.3286C8.14354 23.3535 7.72596 23.2155 7.40021 22.9429C7.07445 22.6702 6.8651 22.2835 6.81493 21.8617L6.80326 21.6667V13.3333C6.80326 12.8913 6.97886 12.4674 7.29142 12.1548C7.60398 11.8423 8.0279 11.6667 8.46993 11.6667ZM13.4699 10C13.8603 9.99994 14.2382 10.1369 14.5379 10.3869C14.8376 10.637 15.0401 10.9843 15.1099 11.3683C15.4453 11.1739 15.792 10.9997 16.1483 10.8467C17.2599 10.3717 18.9249 10.11 20.4283 10.5817C21.2166 10.8317 22.0083 11.2983 22.5949 12.0933C23.1199 12.8017 23.4033 13.6633 23.4599 14.6317L23.4699 15V21.6667C23.4695 22.0915 23.3068 22.5001 23.0152 22.8089C22.7236 23.1178 22.325 23.3037 21.9009 23.3286C21.4769 23.3535 21.0593 23.2155 20.7335 22.9429C20.4078 22.6702 20.1984 22.2835 20.1483 21.8617L20.1366 21.6667V15C20.1366 14.45 20.0033 14.1933 19.9166 14.075C19.7922 13.9203 19.6208 13.8103 19.4283 13.7617C18.8483 13.5783 18.0133 13.675 17.4583 13.9117C16.6249 14.2683 15.8616 14.8283 15.3416 15.3467L15.1366 15.5667V21.6667C15.1361 22.0915 14.9735 22.5001 14.6818 22.8089C14.3902 23.1178 13.9917 23.3037 13.5676 23.3286C13.1435 23.3535 12.726 23.2155 12.4002 22.9429C12.0745 22.6702 11.8651 22.2835 11.8149 21.8617L11.8033 21.6667V11.6667C11.8033 11.2246 11.9789 10.8007 12.2914 10.4882C12.604 10.1756 13.0279 10 13.4699 10ZM8.46993 6.66667C8.91196 6.66667 9.33588 6.84226 9.64844 7.15482C9.961 7.46738 10.1366 7.89131 10.1366 8.33333C10.1366 8.77536 9.961 9.19928 9.64844 9.51184C9.33588 9.8244 8.91196 10 8.46993 10C8.0279 10 7.60398 9.8244 7.29142 9.51184C6.97886 9.19928 6.80326 8.77536 6.80326 8.33333C6.80326 7.89131 6.97886 7.46738 7.29142 7.15482C7.60398 6.84226 8.0279 6.66667 8.46993 6.66667Z" fill="#0D51BE"/>
</svg>
