<svg width="19" height="13" viewBox="0 0 19 13" fill="none" xmlns="http://www.w3.org/2000/svg">
<path d="M11.3451 12.6502C11.1011 12.417 10.984 12.1353 10.9938 11.8049C11.0035 11.4746 11.1308 11.1928 11.3756 10.9596L14.8218 7.66592H1.21991C0.874267 7.66592 0.584338 7.55399 0.350116 7.33013C0.115895 7.10628 -0.000809047 6.82957 4.22111e-06 6.5C4.22111e-06 6.16966 0.117115 5.89255 0.351336 5.6687C0.585557 5.44484 0.875081 5.3333 1.21991 5.33408H14.8218L11.3451 2.01121C11.1011 1.77803 10.9791 1.50093 10.9791 1.17991C10.9791 0.858893 11.1011 0.582182 11.3451 0.349775C11.5891 0.116592 11.879 0 12.2149 0C12.5508 0 12.8403 0.116592 13.0835 0.349775L18.6645 5.68386C18.7865 5.80045 18.8731 5.92676 18.9243 6.06278C18.9756 6.1988 19.0008 6.34454 19 6.5C19 6.65546 18.9744 6.8012 18.9231 6.93722C18.8719 7.07324 18.7857 7.19955 18.6645 7.31614L13.053 12.6794C12.8293 12.8931 12.55 13 12.2149 13C11.8798 13 11.5899 12.8834 11.3451 12.6502Z" fill="#0D51BE"/>
</svg>
