<svg width="36" height="32" viewBox="0 0 36 32" fill="none" xmlns="http://www.w3.org/2000/svg">
<path d="M35.0469 5.5196C34.9512 5.29214 34.7904 5.09806 34.5847 4.96183C34.379 4.82561 34.1375 4.75332 33.8908 4.7541H29.1415C28.5716 3.75975 27.7804 2.90994 26.8293 2.27046C25.8782 1.63099 24.7927 1.21902 23.6568 1.06646C22.5209 0.913895 21.3651 1.02484 20.279 1.39069C19.1928 1.75655 18.2055 2.36749 17.3934 3.17622C16.6823 3.8695 16.117 4.6979 15.7307 5.61275C15.3444 6.5276 15.1448 7.51044 15.1437 8.50351V9.45649C8.78533 7.8005 3.58302 2.6763 3.53615 2.61381C3.37274 2.45303 3.16825 2.3403 2.94506 2.28795C2.72187 2.2356 2.48859 2.24564 2.27073 2.31698C2.05355 2.38609 1.85908 2.51257 1.70784 2.68306C1.5566 2.85355 1.45421 3.06171 1.41148 3.28558C0.0523218 10.8157 2.31759 15.8617 4.45788 18.7675C5.53139 20.2369 6.8343 21.524 8.31666 22.5794C5.92641 25.2821 2.23948 26.6882 2.20824 26.7038C2.03193 26.7692 1.87264 26.8735 1.74226 27.009C1.61187 27.1445 1.51374 27.3077 1.45518 27.4864C1.39661 27.6651 1.37913 27.8547 1.40402 28.0411C1.42892 28.2275 1.49555 28.4058 1.59896 28.5629C1.72394 28.7504 2.19261 29.3596 3.33306 29.9377C4.75471 30.6407 6.62942 31 8.89469 31C19.9086 31 29.1259 22.517 30.0633 11.5968L34.7813 6.89439C34.9508 6.71368 35.0657 6.48867 35.1127 6.24538C35.1597 6.00208 35.1369 5.75045 35.0469 5.5196ZM27.9698 10.1595C27.7521 10.3754 27.6238 10.6655 27.6105 10.9719C26.97 20.7985 18.7525 28.5004 8.89469 28.5004C7.2387 28.5004 6.08263 28.2817 5.27026 28.0161C7.06685 27.0475 9.56646 25.3603 11.1912 22.9388C11.2855 22.7922 11.3481 22.6275 11.375 22.4554C11.4019 22.2832 11.3925 22.1073 11.3474 21.9389C11.302 21.7689 11.2215 21.6102 11.1112 21.473C11.0009 21.3358 10.8632 21.2231 10.7069 21.1422C10.6913 21.1265 8.37915 19.9236 6.39508 17.1897C4.14543 14.0964 3.19246 10.3314 3.5674 5.98828C6.03576 8.01921 10.7538 11.3312 16.1904 12.2373C16.37 12.2661 16.5536 12.2559 16.7288 12.2074C16.9041 12.1589 17.0668 12.0732 17.2059 11.9561C17.3419 11.8371 17.4512 11.6907 17.5266 11.5264C17.602 11.3622 17.6418 11.1838 17.6433 11.0031V8.50351C17.6457 7.35681 18.0421 6.24577 18.7663 5.35664C19.4904 4.46752 20.4982 3.85437 21.6207 3.61998C22.7432 3.38559 23.9121 3.54422 24.9316 4.06927C25.951 4.59432 26.7589 5.45387 27.22 6.50382C27.3196 6.72716 27.4818 6.91684 27.687 7.04992C27.8921 7.18301 28.1315 7.25379 28.376 7.25371H30.8756L27.9698 10.1595Z" fill="#0D51BE" stroke="#0D51BE" stroke-width="0.9"/>
</svg>
