<svg width="38" height="39" viewBox="0 0 38 39" fill="none" xmlns="http://www.w3.org/2000/svg">
<g filter="url(#filter0_d_1_61)">
<path d="M8.4695 17.9532C8.46898 19.8161 8.95573 21.635 9.88128 23.2383L8.38098 28.7161L13.9869 27.2462C15.5374 28.0903 17.2746 28.5326 19.04 28.5327H19.0446C24.8725 28.5327 29.6165 23.7904 29.619 17.9616C29.6201 15.1371 28.5211 12.4811 26.5245 10.4828C24.5281 8.4848 21.8731 7.38386 19.0442 7.38257C13.2157 7.38257 8.47199 12.1246 8.46958 17.9532" fill="url(#paint0_linear_1_61)"/>
<path d="M8.09195 17.9499C8.09135 19.8798 8.59555 21.7638 9.55409 23.4244L8 29.0986L13.8069 27.5761C15.4069 28.4484 17.2083 28.9084 19.0413 28.9091H19.0461C25.083 28.9091 29.9974 23.9962 30 17.9586C30.001 15.0326 28.8625 12.2812 26.7945 10.2114C24.7263 8.14183 21.9763 7.00126 19.0461 7.00006C13.0081 7.00006 8.09436 11.9122 8.09195 17.9499ZM11.5501 23.1384L11.3333 22.7943C10.4218 21.345 9.94073 19.6703 9.94141 17.9506C9.94339 12.9322 14.0275 8.84944 19.0495 8.84944C21.4815 8.85047 23.7671 9.79853 25.4862 11.5187C27.2052 13.239 28.1511 15.5257 28.1505 17.958C28.1483 22.9763 24.0641 27.0596 19.0461 27.0596H19.0425C17.4085 27.0587 15.806 26.6199 14.4085 25.7907L14.076 25.5935L10.63 26.497L11.5501 23.1383V23.1384Z" fill="url(#paint1_linear_1_61)"/>
<path d="M16.3082 13.3721C16.1032 12.9163 15.8874 12.9072 15.6924 12.8992C15.5327 12.8923 15.3502 12.8928 15.1679 12.8928C14.9853 12.8928 14.6888 12.9615 14.4381 13.2352C14.1871 13.5091 13.48 14.1712 13.48 15.5178C13.48 16.8644 14.4608 18.1658 14.5976 18.3485C14.7345 18.531 16.491 21.3827 19.273 22.4798C21.5851 23.3915 22.0556 23.2102 22.5574 23.1645C23.0592 23.1189 24.1768 22.5026 24.4048 21.8635C24.6329 21.2244 24.6329 20.6767 24.5645 20.5622C24.4961 20.4482 24.3136 20.3797 24.0399 20.2429C23.7661 20.106 22.4205 19.4438 22.1696 19.3525C21.9187 19.2612 21.7362 19.2157 21.5537 19.4897C21.3712 19.7633 20.847 20.3797 20.6873 20.5622C20.5277 20.7452 20.3679 20.7679 20.0943 20.631C19.8204 20.4937 18.939 20.205 17.8932 19.2727C17.0795 18.5472 16.5302 17.6513 16.3705 17.3773C16.2109 17.1037 16.3534 16.9553 16.4907 16.8189C16.6137 16.6963 16.7645 16.4993 16.9015 16.3396C17.0379 16.1797 17.0835 16.0657 17.1748 15.8832C17.2661 15.7005 17.2204 15.5406 17.1521 15.4037C17.0835 15.2668 16.5516 13.9132 16.3082 13.3721Z" fill="white"/>
</g>
<defs>
<filter id="filter0_d_1_61" x="0" y="6.10352e-05" width="38" height="38.0986" filterUnits="userSpaceOnUse" color-interpolation-filters="sRGB">
<feFlood flood-opacity="0" result="BackgroundImageFix"/>
<feColorMatrix in="SourceAlpha" type="matrix" values="0 0 0 0 0 0 0 0 0 0 0 0 0 0 0 0 0 0 127 0" result="hardAlpha"/>
<feOffset dy="1"/>
<feGaussianBlur stdDeviation="4"/>
<feComposite in2="hardAlpha" operator="out"/>
<feColorMatrix type="matrix" values="0 0 0 0 0.180512 0 0 0 0 0.180512 0 0 0 0 0.180512 0 0 0 0.2 0"/>
<feBlend mode="normal" in2="BackgroundImageFix" result="effect1_dropShadow_1_61"/>
<feBlend mode="normal" in="SourceGraphic" in2="effect1_dropShadow_1_61" result="shape"/>
</filter>
<linearGradient id="paint0_linear_1_61" x1="1070.28" y1="2140.74" x2="1070.28" y2="7.38257" gradientUnits="userSpaceOnUse">
<stop stop-color="#1FAF38"/>
<stop offset="1" stop-color="#60D669"/>
</linearGradient>
<linearGradient id="paint1_linear_1_61" x1="1108" y1="2216.86" x2="1108" y2="7.00006" gradientUnits="userSpaceOnUse">
<stop stop-color="#F9F9F9"/>
<stop offset="1" stop-color="white"/>
</linearGradient>
</defs>
</svg>
